<svg id="Layer_1" xmlns="http://www.w3.org/2000/svg" width="1000" height="1000" viewBox="-915 -139 1000 1000"><style>.st0{fill:#AF6EE8;} .st1{fill:#734098;} .st2{fill:#FFFFFF;} .st3{fill:#562F72;}</style><circle class="st0" cx="-415" cy="361" r="500"/><path class="st1" d="M-479.5 404.2h-282.6V57.8h209.7l72.9 72.9z"/><path class="st2" d="M-720.2 164.2h200v32.3h-200zM-720.2 228.7h148.4V261h-148.4zM-720.2 293.3h180.6v32.3h-180.6z"/><path class="st3" d="M-479.5 131.3h-72.9V57.8z"/><g><path class="st2" d="M1.1 374.5c0 60.6-21.3 116.1-55.5 160.6-29 38.1-131 169.7-201.9 238.7V639.7h-9c-146.5 0-264.5-118.7-264.5-265.2s118.7-265.2 265.2-265.2c146.4.1 265.7 119.4 265.7 265.2z"/></g><g><circle class="st1" cx="-140.8" cy="368.1" r="30.3"/><circle class="st1" cx="-262.7" cy="368.1" r="30.3"/><circle class="st1" cx="-384" cy="368.1" r="30.3"/></g><g><path class="st2" d="M-491.1 742.3l-24.5-20.7 43.8-51.6-51.6-43.8 20.7-24.6 76.1 64.6z"/><path class="st2" d="M-489.2 693.3c-21.9 0-43.9-3.2-65.2-9-68.4-19.4-124.5-67.7-153.5-132.9-11.6-25.8-18.1-53.5-20-82.6l38.7-2.6c1.3 23.9 7.1 47.1 16.8 69 24.5 54.8 71 95.5 128.4 111.6 21.9 6.5 43.9 8.4 67.1 7.1l2.6 38.7c-5.2.7-9.7.7-14.9.7z"/></g></svg>