<?xml version="1.0" encoding="utf-8"?>
<!-- Generator: Adobe Illustrator 19.0.0, SVG Export Plug-In . SVG Version: 6.00 Build 0)  -->
<svg version="1.1" id="Layer_1" xmlns="http://www.w3.org/2000/svg" xmlns:xlink="http://www.w3.org/1999/xlink" x="0px" y="0px"
	 viewBox="-1063 1065 32 32" style="enable-background:new -1063 1065 32 32;" xml:space="preserve">
<style type="text/css">
	.st0{fill:#AF6EE8;}
	.st1{fill:#FFFFFF;}
</style>
<path class="st0" d="M-1063,1081.2c0-8.6,7.1-15.6,15.9-15.6c8.8,0,15.9,7,15.9,15.6c0,8.6-7.1,15.6-15.9,15.6
	C-1055.9,1096.8-1063,1089.8-1063,1081.2"/>
<path class="st1" d="M-1037.9,1080.7h-5.6c0-1.1-0.6-2.1-1.5-2.7v-6.1h7.1V1080.7L-1037.9,1080.7z M-1037.7,1071.5h-7.6
	c-0.1,0-0.3,0.1-0.3,0.3v6.1c-0.4-0.2-0.8-0.3-1.3-0.3l-6.4,0c-1.8,0-3.3,1.5-3.3,3.3v3.2c0,1.8,1.5,3.3,3.3,3.3h1.3l1.7,3
	c0,0.1,0.1,0.1,0.2,0.1c0,0,0.1,0,0.1,0c0.1-0.1,0.2-0.2,0.1-0.3l-1.8-3.3h-1.6c-1.6,0-2.8-1.3-2.8-2.8v-3.2c0-1.6,1.3-2.8,2.8-2.8
	l6.4,0c1.6,0,2.8,1.3,2.8,2.8v3.2c0,1.6-1.3,2.8-2.8,2.8h-2.8c-0.1,0-0.3,0.1-0.3,0.3c0,0.1,0.1,0.3,0.3,0.3h2.8
	c1.8,0,3.3-1.5,3.3-3.3v-2.8h5.8c0.1,0,0.3-0.1,0.3-0.3v-9.3C-1037.4,1071.6-1037.6,1071.5-1037.7,1071.5z M-1038.8,1084.2
	c-0.1,0-0.3,0.1-0.3,0.3c0,1.8-1.5,3.2-3.2,3.2h-0.9l0.7-0.7c0.1-0.1,0.1-0.3,0-0.4c-0.1-0.1-0.3-0.1-0.4,0l-1.2,1.2
	c0,0,0,0-0.1,0.1c0,0,0,0,0,0.1c0,0,0,0,0,0c0,0,0,0,0,0c0,0,0,0.1,0,0.1c0,0,0,0.1,0.1,0.1l1.2,1.2c0,0.1,0.1,0.1,0.2,0.1
	c0.1,0,0.1,0,0.2-0.1c0.1-0.1,0.1-0.3,0-0.4l-0.7-0.7h0.9c2.1,0,3.7-1.7,3.7-3.7C-1038.5,1084.3-1038.6,1084.2-1038.8,1084.2"/>
<path class="st1" d="M-1046.8,1082.5c0-0.4-0.3-0.6-0.6-0.6s-0.6,0.3-0.6,0.6s0.3,0.6,0.6,0.6S-1046.8,1082.8-1046.8,1082.5
	 M-1049.4,1082.5c0-0.4-0.3-0.6-0.6-0.6c-0.4,0-0.6,0.3-0.6,0.6s0.3,0.6,0.6,0.6C-1049.7,1083.1-1049.4,1082.8-1049.4,1082.5
	 M-1053.3,1082.5c0,0.3,0.3,0.6,0.6,0.6c0.3,0,0.6-0.3,0.6-0.6c0-0.4-0.3-0.6-0.6-0.6C-1053,1081.8-1053.3,1082.1-1053.3,1082.5
	 M-1043.8,1078.9h4.8c0.1,0,0.3-0.1,0.3-0.3s-0.1-0.3-0.3-0.3h-4.8c-0.1,0-0.3,0.1-0.3,0.3
	C-1044,1078.8-1043.9,1078.9-1043.8,1078.9 M-1043.8,1076.6h4.8c0.1,0,0.3-0.1,0.3-0.3c0-0.1-0.1-0.3-0.3-0.3h-4.8
	c-0.1,0-0.3,0.1-0.3,0.3C-1044,1076.5-1043.9,1076.6-1043.8,1076.6 M-1043.8,1074.3h4.8c0.1,0,0.3-0.1,0.3-0.3s-0.1-0.3-0.3-0.3
	h-4.8c-0.1,0-0.3,0.1-0.3,0.3C-1044,1074.2-1043.9,1074.3-1043.8,1074.3"/>
</svg>
